<svg t="1590207281519" class="icon" viewBox="0 0 1024 1024" version="1.1" xmlns="http://www.w3.org/2000/svg" p-id="8464"
     width="32" height="32">
    <path d="M971.636364 866.071273v73.262545H52.363636v-73.262545h371.409455V816.872727h51.595636v-78.824727H100.445091V84.782545h823.296v653.265455H548.631273v78.708364h51.898182v49.314909H971.636364z m-797.905455-201.309091h676.724364V158.045091H173.730909v506.717091z m181.736727-410.391273h59.275637v295.261091h-59.275637V254.370909z m181.480728 295.261091h-59.275637V254.370909h114.222546c18.525091 0 33.047273 0.930909 43.287272 2.746182 14.894545 2.443636 27.764364 7.330909 38.330182 14.592 10.705455 7.400727 19.316364 17.757091 25.623273 30.766545 6.330182 12.846545 9.495273 27.019636 9.495273 42.216728 0 25.949091-8.448 48.384-25.157818 66.56-17.338182 18.874182-46.941091 27.787636-88.366546 27.787636h-58.181818v110.592z m58.763636-165.957818c20.666182 0 34.513455-3.653818 41.774545-10.077091 7.074909-6.283636 10.705455-15.313455 10.775273-27.904 0-9.122909-2.141091-16.430545-6.469818-22.504727a28.299636 28.299636 0 0 0-16.151273-11.426909c-4.840727-1.28-15.290182-2.024727-30.650182-2.024728h-57.94909v73.937455h58.647272z"
          p-id="8465" fill="#707070"></path>
</svg>