<svg t="1590207614535" class="icon" viewBox="0 0 1024 1024" version="1.1" xmlns="http://www.w3.org/2000/svg" p-id="7272"
     width="32" height="32">
    <path d="M881.9 920.8h-738c-42.5 0-77-34.5-77-77v-653c0-42.5 34.5-77 77-77h738c42.5 0 77 34.5 77 77v653.1c0.1 42.3-34.5 76.9-77 76.9z m-738-764.6c-19 0-34.5 15.5-34.5 34.5v653.1c0 19 15.5 34.5 34.5 34.5h738c19 0 34.5-15.5 34.5-34.5V190.7c0-19-15.5-34.5-34.5-34.5h-738z m0 0"
          fill="#707070" p-id="7273"></path>
    <path d="M258.1 453.5H343v127.4h-84.9V453.5z m212.3 0h84.9v127.4h-84.9V453.5z m212.4 0h84.9v127.4h-84.9V453.5z m0 0"
          fill="#707070" p-id="7274"></path>
</svg>